<svg version="1.1" xmlns="http://www.w3.org/2000/svg" viewBox="0 0 1369.4583129882812 669.2000915527344" width="1369.4583129882812" height="669.2000915527344" filter="invert(93%) hue-rotate(180deg)">
  <!-- svg-source:excalidraw -->
  
  <defs>
    <style class="style-fonts">
      @font-face {
        font-family: "Virgil";
        src: url("https://file%2B.vscode-resource.vscode-cdn.net/c%3A/Users/ivan.garcia/.vscode/extensions/pomdtr.excalidraw-editor-3.5.0/public//dist/excalidraw-assets/Virgil.woff2");
      }
      @font-face {
        font-family: "Cascadia";
        src: url("https://file%2B.vscode-resource.vscode-cdn.net/c%3A/Users/ivan.garcia/.vscode/extensions/pomdtr.excalidraw-editor-3.5.0/public//dist/excalidraw-assets/Cascadia.woff2");
      }
    </style>
  </defs>
  <rect x="0" y="0" width="1369.4583129882812" height="669.2000915527344" fill="#ffffff"></rect><g stroke-linecap="round" transform="translate(746.1091938866257 107.13496599497864) rotate(0 117.665865819577 73.00642486064396)"><path d="M-0.58 -1.84 L236.57 1.38 L237.16 144.82 L-1.47 147.35" stroke="none" stroke-width="0" fill="#ced4da"></path><path d="M1.08 -0.1 C51.21 1.52, 103.23 2.16, 234.25 0.18 M-0.36 -0.31 C90.31 1.45, 180.47 1.76, 235.54 -0.75 M236.78 1.74 C233.7 29.1, 236.07 60.27, 234.1 146.85 M235.47 0.24 C234.23 38.93, 234.41 78.36, 235.11 146.22 M234.55 144.53 C178.96 146.36, 122.45 147.08, -0.33 146.8 M235.97 146.81 C144.4 144.98, 53.13 144.9, -0.2 146.57 M0.25 144.34 C-0.57 99.26, -1.14 55.06, 0.33 -0.68 M-0.22 146.56 C-1.16 112.38, -0.66 77.53, 0.42 0.19" stroke="#000000" stroke-width="1" fill="none"></path></g><g stroke-linecap="round"><g transform="translate(747.1662813078774 131.04565095214744) rotate(0 118.44826530325417 -0.335174933859534)"><path d="M0.77 -0.07 C40.38 0.1, 197.67 0.41, 237.18 0.59 M-0.28 -1.15 C39.21 -1.3, 196.65 -1.28, 236.27 -1.22" stroke="#000000" stroke-width="1" fill="none"></path></g></g><mask></mask><g stroke-linecap="round" transform="translate(752.1301905172227 115.75601210514156) rotate(0 4.602295058421873 4.602295058421916)"><path d="M9.2 4.6 C9.2 4.87, 9.18 5.14, 9.13 5.4 C9.09 5.66, 9.02 5.93, 8.93 6.18 C8.84 6.43, 8.72 6.67, 8.59 6.9 C8.45 7.13, 8.3 7.36, 8.13 7.56 C7.96 7.76, 7.76 7.96, 7.56 8.13 C7.36 8.3, 7.13 8.45, 6.9 8.59 C6.67 8.72, 6.43 8.84, 6.18 8.93 C5.93 9.02, 5.66 9.09, 5.4 9.13 C5.14 9.18, 4.87 9.2, 4.6 9.2 C4.34 9.2, 4.07 9.18, 3.8 9.13 C3.54 9.09, 3.28 9.02, 3.03 8.93 C2.78 8.84, 2.53 8.72, 2.3 8.59 C2.07 8.45, 1.85 8.3, 1.64 8.13 C1.44 7.96, 1.25 7.76, 1.08 7.56 C0.91 7.36, 0.75 7.13, 0.62 6.9 C0.48 6.67, 0.37 6.43, 0.28 6.18 C0.19 5.93, 0.12 5.66, 0.07 5.4 C0.02 5.14, 0 4.87, 0 4.6 C0 4.34, 0.02 4.07, 0.07 3.8 C0.12 3.54, 0.19 3.28, 0.28 3.03 C0.37 2.78, 0.48 2.53, 0.62 2.3 C0.75 2.07, 0.91 1.85, 1.08 1.64 C1.25 1.44, 1.44 1.25, 1.64 1.08 C1.85 0.91, 2.07 0.75, 2.3 0.62 C2.53 0.48, 2.78 0.37, 3.03 0.28 C3.28 0.19, 3.54 0.12, 3.8 0.07 C4.07 0.02, 4.34 0, 4.6 0 C4.87 0, 5.14 0.02, 5.4 0.07 C5.66 0.12, 5.93 0.19, 6.18 0.28 C6.43 0.37, 6.67 0.48, 6.9 0.62 C7.13 0.75, 7.36 0.91, 7.56 1.08 C7.76 1.25, 7.96 1.44, 8.13 1.64 C8.3 1.85, 8.45 2.07, 8.59 2.3 C8.72 2.53, 8.84 2.78, 8.93 3.03 C9.02 3.28, 9.09 3.54, 9.13 3.8 C9.18 4.07, 9.19 4.47, 9.2 4.6 C9.22 4.74, 9.22 4.47, 9.2 4.6" stroke="none" stroke-width="0" fill="#fa5252"></path><path d="M9.2 4.6 C9.2 4.87, 9.18 5.14, 9.13 5.4 C9.09 5.66, 9.02 5.93, 8.93 6.18 C8.84 6.43, 8.72 6.67, 8.59 6.9 C8.45 7.13, 8.3 7.36, 8.13 7.56 C7.96 7.76, 7.76 7.96, 7.56 8.13 C7.36 8.3, 7.13 8.45, 6.9 8.59 C6.67 8.72, 6.43 8.84, 6.18 8.93 C5.93 9.02, 5.66 9.09, 5.4 9.13 C5.14 9.18, 4.87 9.2, 4.6 9.2 C4.34 9.2, 4.07 9.18, 3.8 9.13 C3.54 9.09, 3.28 9.02, 3.03 8.93 C2.78 8.84, 2.53 8.72, 2.3 8.59 C2.07 8.45, 1.85 8.3, 1.64 8.13 C1.44 7.96, 1.25 7.76, 1.08 7.56 C0.91 7.36, 0.75 7.13, 0.62 6.9 C0.48 6.67, 0.37 6.43, 0.28 6.18 C0.19 5.93, 0.12 5.66, 0.07 5.4 C0.02 5.14, 0 4.87, 0 4.6 C0 4.34, 0.02 4.07, 0.07 3.8 C0.12 3.54, 0.19 3.28, 0.28 3.03 C0.37 2.78, 0.48 2.53, 0.62 2.3 C0.75 2.07, 0.91 1.85, 1.08 1.64 C1.25 1.44, 1.44 1.25, 1.64 1.08 C1.85 0.91, 2.07 0.75, 2.3 0.62 C2.53 0.48, 2.78 0.37, 3.03 0.28 C3.28 0.19, 3.54 0.12, 3.8 0.07 C4.07 0.02, 4.34 0, 4.6 0 C4.87 0, 5.14 0.02, 5.4 0.07 C5.66 0.12, 5.93 0.19, 6.18 0.28 C6.43 0.37, 6.67 0.48, 6.9 0.62 C7.13 0.75, 7.36 0.91, 7.56 1.08 C7.76 1.25, 7.96 1.44, 8.13 1.64 C8.3 1.85, 8.45 2.07, 8.59 2.3 C8.72 2.53, 8.84 2.78, 8.93 3.03 C9.02 3.28, 9.09 3.54, 9.13 3.8 C9.18 4.07, 9.19 4.47, 9.2 4.6 C9.22 4.74, 9.22 4.47, 9.2 4.6" stroke="#000000" stroke-width="1" fill="none"></path></g><g stroke-linecap="round" transform="translate(771.0155941755361 115.75601210514156) rotate(0 4.602295058421873 4.602295058421916)"><path d="M9.2 4.6 C9.2 4.87, 9.18 5.14, 9.13 5.4 C9.09 5.66, 9.02 5.93, 8.93 6.18 C8.84 6.43, 8.72 6.67, 8.59 6.9 C8.45 7.13, 8.3 7.36, 8.13 7.56 C7.96 7.76, 7.76 7.96, 7.56 8.13 C7.36 8.3, 7.13 8.45, 6.9 8.59 C6.67 8.72, 6.43 8.84, 6.18 8.93 C5.93 9.02, 5.66 9.09, 5.4 9.13 C5.14 9.18, 4.87 9.2, 4.6 9.2 C4.34 9.2, 4.07 9.18, 3.8 9.13 C3.54 9.09, 3.28 9.02, 3.03 8.93 C2.78 8.84, 2.53 8.72, 2.3 8.59 C2.07 8.45, 1.85 8.3, 1.64 8.13 C1.44 7.96, 1.25 7.76, 1.08 7.56 C0.91 7.36, 0.75 7.13, 0.62 6.9 C0.48 6.67, 0.37 6.43, 0.28 6.18 C0.19 5.93, 0.12 5.66, 0.07 5.4 C0.02 5.14, 0 4.87, 0 4.6 C0 4.34, 0.02 4.07, 0.07 3.8 C0.12 3.54, 0.19 3.28, 0.28 3.03 C0.37 2.78, 0.48 2.53, 0.62 2.3 C0.75 2.07, 0.91 1.85, 1.08 1.64 C1.25 1.44, 1.44 1.25, 1.64 1.08 C1.85 0.91, 2.07 0.75, 2.3 0.62 C2.53 0.48, 2.78 0.37, 3.03 0.28 C3.28 0.19, 3.54 0.12, 3.8 0.07 C4.07 0.02, 4.34 0, 4.6 0 C4.87 0, 5.14 0.02, 5.4 0.07 C5.66 0.12, 5.93 0.19, 6.18 0.28 C6.43 0.37, 6.67 0.48, 6.9 0.62 C7.13 0.75, 7.36 0.91, 7.56 1.08 C7.76 1.25, 7.96 1.44, 8.13 1.64 C8.3 1.85, 8.45 2.07, 8.59 2.3 C8.72 2.53, 8.84 2.78, 8.93 3.03 C9.02 3.28, 9.09 3.54, 9.13 3.8 C9.18 4.07, 9.19 4.47, 9.2 4.6 C9.22 4.74, 9.22 4.47, 9.2 4.6" stroke="none" stroke-width="0" fill="#fab005"></path><path d="M9.2 4.6 C9.2 4.87, 9.18 5.14, 9.13 5.4 C9.09 5.66, 9.02 5.93, 8.93 6.18 C8.84 6.43, 8.72 6.67, 8.59 6.9 C8.45 7.13, 8.3 7.36, 8.13 7.56 C7.96 7.76, 7.76 7.96, 7.56 8.13 C7.36 8.3, 7.13 8.45, 6.9 8.59 C6.67 8.72, 6.43 8.84, 6.18 8.93 C5.93 9.02, 5.66 9.09, 5.4 9.13 C5.14 9.18, 4.87 9.2, 4.6 9.2 C4.34 9.2, 4.07 9.18, 3.8 9.13 C3.54 9.09, 3.28 9.02, 3.03 8.93 C2.78 8.84, 2.53 8.72, 2.3 8.59 C2.07 8.45, 1.85 8.3, 1.64 8.13 C1.44 7.96, 1.25 7.76, 1.08 7.56 C0.91 7.36, 0.75 7.13, 0.62 6.9 C0.48 6.67, 0.37 6.43, 0.28 6.18 C0.19 5.93, 0.12 5.66, 0.07 5.4 C0.02 5.14, 0 4.87, 0 4.6 C0 4.34, 0.02 4.07, 0.07 3.8 C0.12 3.54, 0.19 3.28, 0.28 3.03 C0.37 2.78, 0.48 2.53, 0.62 2.3 C0.75 2.07, 0.91 1.85, 1.08 1.64 C1.25 1.44, 1.44 1.25, 1.64 1.08 C1.85 0.91, 2.07 0.75, 2.3 0.62 C2.53 0.48, 2.78 0.37, 3.03 0.28 C3.28 0.19, 3.54 0.12, 3.8 0.07 C4.07 0.02, 4.34 0, 4.6 0 C4.87 0, 5.14 0.02, 5.4 0.07 C5.66 0.12, 5.93 0.19, 6.18 0.28 C6.43 0.37, 6.67 0.48, 6.9 0.62 C7.13 0.75, 7.36 0.91, 7.56 1.08 C7.76 1.25, 7.96 1.44, 8.13 1.64 C8.3 1.85, 8.45 2.07, 8.59 2.3 C8.72 2.53, 8.84 2.78, 8.93 3.03 C9.02 3.28, 9.09 3.54, 9.13 3.8 C9.18 4.07, 9.19 4.47, 9.2 4.6 C9.22 4.74, 9.22 4.47, 9.2 4.6" stroke="#000000" stroke-width="1" fill="none"></path></g><g stroke-linecap="round" transform="translate(790.7304145385801 116.58542880986613) rotate(0 4.602295058421873 4.602295058421916)"><path d="M9.2 4.6 C9.2 4.87, 9.18 5.14, 9.13 5.4 C9.09 5.66, 9.02 5.93, 8.93 6.18 C8.84 6.43, 8.72 6.67, 8.59 6.9 C8.45 7.13, 8.3 7.36, 8.13 7.56 C7.96 7.76, 7.76 7.96, 7.56 8.13 C7.36 8.3, 7.13 8.45, 6.9 8.59 C6.67 8.72, 6.43 8.84, 6.18 8.93 C5.93 9.02, 5.66 9.09, 5.4 9.13 C5.14 9.18, 4.87 9.2, 4.6 9.2 C4.34 9.2, 4.07 9.18, 3.8 9.13 C3.54 9.09, 3.28 9.02, 3.03 8.93 C2.78 8.84, 2.53 8.72, 2.3 8.59 C2.07 8.45, 1.85 8.3, 1.64 8.13 C1.44 7.96, 1.25 7.76, 1.08 7.56 C0.91 7.36, 0.75 7.13, 0.62 6.9 C0.48 6.67, 0.37 6.43, 0.28 6.18 C0.19 5.93, 0.12 5.66, 0.07 5.4 C0.02 5.14, 0 4.87, 0 4.6 C0 4.34, 0.02 4.07, 0.07 3.8 C0.12 3.54, 0.19 3.28, 0.28 3.03 C0.37 2.78, 0.48 2.53, 0.62 2.3 C0.75 2.07, 0.91 1.85, 1.08 1.64 C1.25 1.44, 1.44 1.25, 1.64 1.08 C1.85 0.91, 2.07 0.75, 2.3 0.62 C2.53 0.48, 2.78 0.37, 3.03 0.28 C3.28 0.19, 3.54 0.12, 3.8 0.07 C4.07 0.02, 4.34 0, 4.6 0 C4.87 0, 5.14 0.02, 5.4 0.07 C5.66 0.12, 5.93 0.19, 6.18 0.28 C6.43 0.37, 6.67 0.48, 6.9 0.62 C7.13 0.75, 7.36 0.91, 7.56 1.08 C7.76 1.25, 7.96 1.44, 8.13 1.64 C8.3 1.85, 8.45 2.07, 8.59 2.3 C8.72 2.53, 8.84 2.78, 8.93 3.03 C9.02 3.28, 9.09 3.54, 9.13 3.8 C9.18 4.07, 9.19 4.47, 9.2 4.6 C9.22 4.74, 9.22 4.47, 9.2 4.6" stroke="none" stroke-width="0" fill="#40c057"></path><path d="M9.2 4.6 C9.2 4.87, 9.18 5.14, 9.13 5.4 C9.09 5.66, 9.02 5.93, 8.93 6.18 C8.84 6.43, 8.72 6.67, 8.59 6.9 C8.45 7.13, 8.3 7.36, 8.13 7.56 C7.96 7.76, 7.76 7.96, 7.56 8.13 C7.36 8.3, 7.13 8.45, 6.9 8.59 C6.67 8.72, 6.43 8.84, 6.18 8.93 C5.93 9.02, 5.66 9.09, 5.4 9.13 C5.14 9.18, 4.87 9.2, 4.6 9.2 C4.34 9.2, 4.07 9.18, 3.8 9.13 C3.54 9.09, 3.28 9.02, 3.03 8.93 C2.78 8.84, 2.53 8.72, 2.3 8.59 C2.07 8.45, 1.85 8.3, 1.64 8.13 C1.44 7.96, 1.25 7.76, 1.08 7.56 C0.91 7.36, 0.75 7.13, 0.62 6.9 C0.48 6.67, 0.37 6.43, 0.28 6.18 C0.19 5.93, 0.12 5.66, 0.07 5.4 C0.02 5.14, 0 4.87, 0 4.6 C0 4.34, 0.02 4.07, 0.07 3.8 C0.12 3.54, 0.19 3.28, 0.28 3.03 C0.37 2.78, 0.48 2.53, 0.62 2.3 C0.75 2.07, 0.91 1.85, 1.08 1.64 C1.25 1.44, 1.44 1.25, 1.64 1.08 C1.85 0.91, 2.07 0.75, 2.3 0.62 C2.53 0.48, 2.78 0.37, 3.03 0.28 C3.28 0.19, 3.54 0.12, 3.8 0.07 C4.07 0.02, 4.34 0, 4.6 0 C4.87 0, 5.14 0.02, 5.4 0.07 C5.66 0.12, 5.93 0.19, 6.18 0.28 C6.43 0.37, 6.67 0.48, 6.9 0.62 C7.13 0.75, 7.36 0.91, 7.56 1.08 C7.76 1.25, 7.96 1.44, 8.13 1.64 C8.3 1.85, 8.45 2.07, 8.59 2.3 C8.72 2.53, 8.84 2.78, 8.93 3.03 C9.02 3.28, 9.09 3.54, 9.13 3.8 C9.18 4.07, 9.19 4.47, 9.2 4.6 C9.22 4.74, 9.22 4.47, 9.2 4.6" stroke="#000000" stroke-width="1" fill="none"></path></g><g stroke-linecap="round"><g transform="translate(756.4971313983199 140.59309642623106) rotate(0 16.381169966666107 8.379858900011484)"><path d="M0.74 1.05 C5.86 3.39, 25.48 12.36, 30.78 14.59 M-0.32 0.56 C5.17 3.06, 27.65 13.66, 33.09 16.2" stroke="#000000" stroke-width="1" fill="none"></path></g></g><mask></mask><g stroke-linecap="round"><g transform="translate(758.2037231107697 168.77357038435497) rotate(0 15.587998557101969 -7.4759668018305945)"><path d="M1.05 -0.77 C6.12 -3.36, 26.05 -12.13, 31.03 -14.78 M0.15 1.43 C5.02 -1.54, 25.15 -13.51, 30.15 -16.38" stroke="#000000" stroke-width="1" fill="none"></path></g></g><mask></mask><g transform="translate(771.9210786881363 145.1413908556226) rotate(0 91.8539810180664 35)"><text x="91.8539810180664" y="0" font-family="Virgil, Segoe UI Emoji" font-size="28px" fill="#000000" text-anchor="middle" style="white-space: pre;" direction="ltr" dominant-baseline="text-before-edge">  API/Model </text><text x="91.8539810180664" y="35" font-family="Virgil, Segoe UI Emoji" font-size="28px" fill="#000000" text-anchor="middle" style="white-space: pre;" direction="ltr" dominant-baseline="text-before-edge">Editor</text></g><g stroke-linecap="round" transform="translate(233.79670516196938 283.86453572882345) rotate(0 53.44769403824688 56.55511811023615)"><path d="M1.31 0.26 L108.43 0.81 L108.76 114.35 L2 113.88" stroke="none" stroke-width="0" fill="#fff"></path><path d="M-1.17 -0.83 C28.46 -0.09, 54.32 -0.1, 108.59 -1.21 M0.17 0.52 C36.48 1.38, 73.81 -0.05, 106.43 -0.55 M105.5 1.73 C106.15 27.49, 107.91 52.38, 107.67 113.18 M106.31 -0.05 C107.15 42.88, 107.71 85.9, 106 112.21 M106.67 111.78 C80.97 113.85, 57.25 113.23, 0.29 114.16 M106.85 113.18 C80.78 111.78, 54.06 111.77, -0.24 113.95 M-0.1 113.09 C-0.21 87.19, 0.64 56.07, 0.05 -1.85 M-0.35 113.76 C0.21 90.92, 0.27 66.44, -0.87 0.13" stroke="transparent" stroke-width="1" fill="none"></path></g><g stroke-linecap="round"><g transform="translate(224.76424180367417 355.44469563184833) rotate(0 67.33418747873344 -0.061995537977622917)"><path d="M0 0 C22.44 -0.02, 112.22 -0.1, 134.67 -0.12 M0 0 C22.44 -0.02, 112.22 -0.1, 134.67 -0.12" stroke="#565656" stroke-width="4" fill="none"></path></g></g><mask></mask><g stroke-linecap="round"><g transform="translate(225.46073356805846 356.60843298701883) rotate(0 -1.995620184160316 -21.86889836422131)"><path d="M0 0 C-1.28 -0.34, -5.92 -1.17, -7.68 -2.05 C-9.45 -2.93, -9.74 -3.78, -10.59 -5.28 C-11.44 -6.78, -12.53 -7.86, -12.78 -11.05 C-13.04 -14.25, -12.63 -21.18, -12.13 -24.44 C-11.63 -27.69, -11.2 -28.33, -9.78 -30.57 C-8.36 -32.81, -6.05 -35.76, -3.6 -37.89 C-1.15 -40.02, 2.83 -42.46, 4.91 -43.35 C6.99 -44.25, 8.21 -43.29, 8.87 -43.28 M0 0 C-1.28 -0.34, -5.92 -1.17, -7.68 -2.05 C-9.45 -2.93, -9.74 -3.78, -10.59 -5.28 C-11.44 -6.78, -12.53 -7.86, -12.78 -11.05 C-13.04 -14.25, -12.63 -21.18, -12.13 -24.44 C-11.63 -27.69, -11.2 -28.33, -9.78 -30.57 C-8.36 -32.81, -6.05 -35.76, -3.6 -37.89 C-1.15 -40.02, 2.83 -42.46, 4.91 -43.35 C6.99 -44.25, 8.21 -43.29, 8.87 -43.28" stroke="#565656" stroke-width="4" fill="none"></path></g></g><mask></mask><g stroke-linecap="round"><g transform="translate(235.28971673836986 313.7163339749067) rotate(0 27.686887219708296 -22.559288411448023)"><path d="M0 0 C-0.75 -2.63, -3.7 -11.7, -4.5 -15.77 C-5.29 -19.83, -5.09 -22.08, -4.78 -24.39 C-4.47 -26.7, -4.16 -27.36, -2.65 -29.62 C-1.14 -31.89, 1.81 -35.85, 4.26 -38 C6.71 -40.14, 9.48 -41.38, 12.07 -42.5 C14.66 -43.62, 16.19 -44.33, 19.78 -44.72 C23.37 -45.1, 28.99 -45.33, 33.6 -44.83 C38.21 -44.33, 44.49 -42.69, 47.44 -41.73 C50.39 -40.76, 49.12 -42.1, 51.28 -39.04 C53.45 -35.97, 58.9 -25.96, 60.43 -23.34 M0 0 C-0.75 -2.63, -3.7 -11.7, -4.5 -15.77 C-5.29 -19.83, -5.09 -22.08, -4.78 -24.39 C-4.47 -26.7, -4.16 -27.36, -2.65 -29.62 C-1.14 -31.89, 1.81 -35.85, 4.26 -38 C6.71 -40.14, 9.48 -41.38, 12.07 -42.5 C14.66 -43.62, 16.19 -44.33, 19.78 -44.72 C23.37 -45.1, 28.99 -45.33, 33.6 -44.83 C38.21 -44.33, 44.49 -42.69, 47.44 -41.73 C50.39 -40.76, 49.12 -42.1, 51.28 -39.04 C53.45 -35.97, 58.9 -25.96, 60.43 -23.34" stroke="#565656" stroke-width="4" fill="none"></path></g></g><mask></mask><g stroke-linecap="round"><g transform="translate(295.0747504617086 288.68000803562376) rotate(0 25.759202124122737 6.018572062290332)"><path d="M0 0 C1.25 -0.81, 4.5 -3.73, 7.53 -4.86 C10.55 -5.99, 12.65 -6.86, 18.15 -6.78 C23.65 -6.7, 35.43 -5.75, 40.53 -4.39 C45.64 -3.02, 46.94 -2.46, 48.77 1.41 C50.6 5.27, 51.06 15.92, 51.52 18.82 M0 0 C1.25 -0.81, 4.5 -3.73, 7.53 -4.86 C10.55 -5.99, 12.65 -6.86, 18.15 -6.78 C23.65 -6.7, 35.43 -5.75, 40.53 -4.39 C45.64 -3.02, 46.94 -2.46, 48.77 1.41 C50.6 5.27, 51.06 15.92, 51.52 18.82" stroke="#565656" stroke-width="4" fill="none"></path></g></g><mask></mask><g stroke-linecap="round"><g transform="translate(359.3981025167774 356.4668534842647) rotate(0 6.3631486538064905 -26.988843433825906)"><path d="M0 0 C2.02 -1.09, 8.73 -3.94, 12.12 -6.56 C15.52 -9.18, 18.54 -12.77, 20.36 -15.72 C22.17 -18.67, 22.58 -20.79, 23.02 -24.24 C23.47 -27.68, 23.73 -32.8, 23.03 -36.41 C22.33 -40.02, 20.87 -43.2, 18.82 -45.9 C16.78 -48.6, 13.48 -51.29, 10.76 -52.62 C8.05 -53.96, 5.46 -54.1, 2.52 -53.91 C-0.42 -53.73, -4.66 -52.34, -6.86 -51.53 C-9.07 -50.72, -10.09 -49.48, -10.73 -49.08 M0 0 C2.02 -1.09, 8.73 -3.94, 12.12 -6.56 C15.52 -9.18, 18.54 -12.77, 20.36 -15.72 C22.17 -18.67, 22.58 -20.79, 23.02 -24.24 C23.47 -27.68, 23.73 -32.8, 23.03 -36.41 C22.33 -40.02, 20.87 -43.2, 18.82 -45.9 C16.78 -48.6, 13.48 -51.29, 10.76 -52.62 C8.05 -53.96, 5.46 -54.1, 2.52 -53.91 C-0.42 -53.73, -4.66 -52.34, -6.86 -51.53 C-9.07 -50.72, -10.09 -49.48, -10.73 -49.08" stroke="#565656" stroke-width="4" fill="none"></path></g></g><mask></mask><g transform="translate(170.66680908203125 371.3035880499175) rotate(0 133.87554931640625 22)"><text x="0" y="0" font-family="Virgil, Segoe UI Emoji" font-size="34.8031496062992px" fill="#000000" text-anchor="start" style="white-space: pre;" direction="ltr" dominant-baseline="text-before-edge">Models Registry</text></g><g stroke-linecap="round" transform="translate(761.8500551506456 411.9252336401107) rotate(0 91.2200381411302 91.22003814113015)"><path d="M-0.65 1.83 C58.57 0.31, 114.24 2.31, 180.47 -0.08 M184.19 -0.38 C183.09 49.2, 184.61 94.45, 184.24 184 M180.87 183.44 C127.54 182.54, 71.93 180.86, 1.39 184.25 M-1.47 182.35 C2.02 120.16, 0.28 61.57, -0.23 -1.6" stroke="#000000" stroke-width="1.5" fill="none" stroke-dasharray="8 9"></path></g><g stroke-linecap="round"><g transform="translate(854.6110990523136 419.28057182915575) rotate(89.96806048575621 0 81.5907161445731)" fill-rule="evenodd"><path d="M0 0 L70.66 40.8 L70.66 122.39 L0 163.18 L-70.66 122.39 L-70.66 40.8 L0 0" stroke="none" stroke-width="0" fill="#fff" fill-rule="evenodd"></path><path d="M0 0 C20.76 11.98, 41.52 23.97, 70.66 40.8 M0 0 C24.11 13.92, 48.23 27.84, 70.66 40.8 M70.66 40.8 C70.66 71.51, 70.66 102.23, 70.66 122.39 M70.66 40.8 C70.66 59.7, 70.66 78.61, 70.66 122.39 M70.66 122.39 C44.08 137.73, 17.51 153.07, 0 163.18 M70.66 122.39 C42.62 138.58, 14.57 154.77, 0 163.18 M0 163.18 C-22.95 149.93, -45.89 136.69, -70.66 122.39 M0 163.18 C-21.55 150.74, -43.09 138.3, -70.66 122.39 M-70.66 122.39 C-70.66 91.91, -70.66 61.43, -70.66 40.8 M-70.66 122.39 C-70.66 105.81, -70.66 89.23, -70.66 40.8 M-70.66 40.8 C-47.97 27.69, -25.28 14.59, 0 0 M-70.66 40.8 C-46.63 26.92, -22.6 13.05, 0 0 M0 0 C0 0, 0 0, 0 0 M0 0 C0 0, 0 0, 0 0" stroke="#000000" stroke-width="1" fill="none"></path></g></g><mask></mask><g stroke-linecap="round"><g transform="translate(853.3535130315095 445.71368331750534) rotate(89.96806048575621 1.1368683772161603e-13 54.025653779518166)" fill-rule="evenodd"><path d="M0 0 L46.79 27.01 L46.79 81.04 L0 108.05 L-46.79 81.04 L-46.79 27.01 L0 0" stroke="none" stroke-width="0" fill="#fff" fill-rule="evenodd"></path><path d="M0 0 C9.49 5.48, 18.99 10.96, 46.79 27.01 M0 0 C17.2 9.93, 34.4 19.86, 46.79 27.01 M46.79 27.01 C46.79 41.75, 46.79 56.49, 46.79 81.04 M46.79 27.01 C46.79 44.56, 46.79 62.11, 46.79 81.04 M46.79 81.04 C28.26 91.74, 9.73 102.43, 0 108.05 M46.79 81.04 C33.73 88.57, 20.68 96.11, 0 108.05 M0 108.05 C-16.05 98.78, -32.1 89.52, -46.79 81.04 M0 108.05 C-10.77 101.83, -21.54 95.62, -46.79 81.04 M-46.79 81.04 C-46.79 68.29, -46.79 55.54, -46.79 27.01 M-46.79 81.04 C-46.79 64.61, -46.79 48.18, -46.79 27.01 M-46.79 27.01 C-34.17 19.73, -21.56 12.45, 0 0 M-46.79 27.01 C-33.69 19.45, -20.59 11.89, 0 0 M0 0 C0 0, 0 0, 0 0 M0 0 C0 0, 0 0, 0 0" stroke="#000000" stroke-width="1" fill="none"></path></g></g><mask></mask><g stroke-linecap="round" transform="translate(800.4416840736656 465.2895322447396) rotate(89.96806048575621 12.020815715551407 11.480451428147603)"><path d="M0 0 L24.04 0 L24.04 22.96 L0 22.96" stroke="none" stroke-width="0" fill="#fff"></path><path d="M0 0 C6.43 0, 12.87 0, 24.04 0 M0 0 C9.32 0, 18.64 0, 24.04 0 M24.04 0 C24.04 5.09, 24.04 10.18, 24.04 22.96 M24.04 0 C24.04 5.2, 24.04 10.41, 24.04 22.96 M24.04 22.96 C14.52 22.96, 5 22.96, 0 22.96 M24.04 22.96 C14.58 22.96, 5.12 22.96, 0 22.96 M0 22.96 C0 14.51, 0 6.06, 0 0 M0 22.96 C0 15.92, 0 8.87, 0 0" stroke="#087f5b" stroke-width="1" fill="none"></path></g><g stroke-linecap="round" transform="translate(803.8252545292935 514.4091792886043) rotate(89.96806048575621 9.79202533326486 9.237759748363146)"><path d="M19.58 9.24 C19.58 9.77, 19.53 10.32, 19.44 10.84 C19.34 11.37, 19.19 11.89, 18.99 12.4 C18.8 12.9, 18.56 13.39, 18.27 13.86 C17.99 14.32, 17.66 14.77, 17.29 15.18 C16.93 15.59, 16.52 15.97, 16.09 16.31 C15.65 16.66, 15.18 16.97, 14.69 17.24 C14.2 17.51, 13.67 17.74, 13.14 17.92 C12.61 18.1, 12.05 18.24, 11.49 18.34 C10.93 18.43, 10.36 18.48, 9.79 18.48 C9.23 18.48, 8.65 18.43, 8.09 18.34 C7.53 18.24, 6.98 18.1, 6.44 17.92 C5.91 17.74, 5.39 17.51, 4.9 17.24 C4.41 16.97, 3.93 16.66, 3.5 16.31 C3.06 15.97, 2.66 15.59, 2.29 15.18 C1.93 14.77, 1.6 14.32, 1.31 13.86 C1.03 13.39, 0.78 12.9, 0.59 12.4 C0.4 11.89, 0.25 11.37, 0.15 10.84 C0.05 10.32, 0 9.77, 0 9.24 C0 8.7, 0.05 8.16, 0.15 7.63 C0.25 7.11, 0.4 6.58, 0.59 6.08 C0.78 5.58, 1.03 5.08, 1.31 4.62 C1.6 4.16, 1.93 3.71, 2.29 3.3 C2.66 2.89, 3.06 2.5, 3.5 2.16 C3.93 1.82, 4.41 1.5, 4.9 1.24 C5.39 0.97, 5.91 0.74, 6.44 0.56 C6.98 0.37, 7.53 0.23, 8.09 0.14 C8.65 0.05, 9.23 0, 9.79 0 C10.36 0, 10.93 0.05, 11.49 0.14 C12.05 0.23, 12.61 0.37, 13.14 0.56 C13.67 0.74, 14.2 0.97, 14.69 1.24 C15.18 1.5, 15.65 1.82, 16.09 2.16 C16.52 2.5, 16.93 2.89, 17.29 3.3 C17.66 3.71, 17.99 4.16, 18.27 4.62 C18.56 5.08, 18.8 5.58, 18.99 6.08 C19.19 6.58, 19.34 7.11, 19.44 7.63 C19.53 8.16, 19.56 8.97, 19.58 9.24 C19.61 9.51, 19.61 8.97, 19.58 9.24" stroke="none" stroke-width="0" fill="#fff"></path><path d="M19.58 9.24 C19.58 9.77, 19.53 10.32, 19.44 10.84 C19.34 11.37, 19.19 11.89, 18.99 12.4 C18.8 12.9, 18.56 13.39, 18.27 13.86 C17.99 14.32, 17.66 14.77, 17.29 15.18 C16.93 15.59, 16.52 15.97, 16.09 16.31 C15.65 16.66, 15.18 16.97, 14.69 17.24 C14.2 17.51, 13.67 17.74, 13.14 17.92 C12.61 18.1, 12.05 18.24, 11.49 18.34 C10.93 18.43, 10.36 18.48, 9.79 18.48 C9.23 18.48, 8.65 18.43, 8.09 18.34 C7.53 18.24, 6.98 18.1, 6.44 17.92 C5.91 17.74, 5.39 17.51, 4.9 17.24 C4.41 16.97, 3.93 16.66, 3.5 16.31 C3.06 15.97, 2.66 15.59, 2.29 15.18 C1.93 14.77, 1.6 14.32, 1.31 13.86 C1.03 13.39, 0.78 12.9, 0.59 12.4 C0.4 11.89, 0.25 11.37, 0.15 10.84 C0.05 10.32, 0 9.77, 0 9.24 C0 8.7, 0.05 8.16, 0.15 7.63 C0.25 7.11, 0.4 6.58, 0.59 6.08 C0.78 5.58, 1.03 5.08, 1.31 4.62 C1.6 4.16, 1.93 3.71, 2.29 3.3 C2.66 2.89, 3.06 2.5, 3.5 2.16 C3.93 1.82, 4.41 1.5, 4.9 1.24 C5.39 0.97, 5.91 0.74, 6.44 0.56 C6.98 0.37, 7.53 0.23, 8.09 0.14 C8.65 0.05, 9.23 0, 9.79 0 C10.36 0, 10.93 0.05, 11.49 0.14 C12.05 0.23, 12.61 0.37, 13.14 0.56 C13.67 0.74, 14.2 0.97, 14.69 1.24 C15.18 1.5, 15.65 1.82, 16.09 2.16 C16.52 2.5, 16.93 2.89, 17.29 3.3 C17.66 3.71, 17.99 4.16, 18.27 4.62 C18.56 5.08, 18.8 5.58, 18.99 6.08 C19.19 6.58, 19.34 7.11, 19.44 7.63 C19.53 8.16, 19.56 8.97, 19.58 9.24 C19.61 9.51, 19.61 8.97, 19.58 9.24" stroke="#087f5b" stroke-width="1" fill="none"></path></g><g stroke-linecap="round" transform="translate(877.8047906515635 513.151851257319) rotate(0 14.637426556108949 13.979439381396219)"><path d="M0 0 C0 0, 0 0, 0 0 M0 0 C0 0, 0 0, 0 0 M0.2 6.71 C0.88 4.57, 2.47 3.48, 5.72 0.92 M-0.25 6.72 C1.45 4.3, 2.94 2.56, 4.84 0.2 M1.67 10.69 C2.05 7.93, 4.59 5.43, 9.19 -0.62 M0.14 12.76 C2.46 9.08, 5.38 5.34, 10.57 0.69 M1.76 19.55 C3.9 11.96, 12.96 6.6, 13.93 -0.92 M-0.21 18.05 C4.77 11.21, 11.65 4.62, 14.83 -0.13 M-0.34 23.2 C9.9 15.81, 17.25 5.5, 20.63 -0.34 M0.28 23.78 C8.07 15.27, 16.58 4.98, 20.96 0.11 M3.26 29.16 C11.63 17.6, 20.56 6, 25.94 -0.59 M1.06 28.44 C9.19 19.08, 18.5 9.13, 25.59 1.21 M6.9 28.06 C13.11 20.62, 23.39 9.5, 29.66 2.78 M5.33 29.25 C15.68 19.08, 24.03 7.52, 30.63 1.02 M10.39 27.14 C14.65 25.24, 21.61 20.08, 32.33 6.17 M12.49 27.94 C18.98 19.54, 27.59 11.06, 30.04 8.03 M17.98 28.99 C21.75 23.88, 24.91 21.45, 29.39 13.11 M15.94 30.16 C19.99 25, 24.33 22.68, 29.88 14.37 M23.09 29.2 C23.55 25.86, 27.07 23.19, 29.29 20.78 M22.25 28.9 C24.8 26.24, 27.83 22.82, 30.45 19.64 M27.47 28.93 C27.92 28.28, 28.98 27.84, 31.3 25.79 M27.69 29.39 C28.59 28.32, 29.69 26.91, 30.93 25.49 M-0.26 27.73 C-0.26 27.73, -0.26 27.73, -0.26 27.73 M-0.26 27.73 C-0.26 27.73, -0.26 27.73, -0.26 27.73 M6.38 28.18 C3.38 25.19, 0.71 23.36, 0.32 23.48 M6.01 28.23 C3.69 25.72, 1.76 23.93, 0.45 22.71 M11.63 29.17 C8.26 26.05, 4.62 20.73, 0.04 16.9 M13 27.67 C8.95 26.25, 5.96 23.12, 0.4 17.03 M17.66 27.97 C12.77 22.17, 5.7 13.8, 1.29 12.57 M17.35 27.19 C12.72 22.44, 7.41 18.2, -0.69 11.97 M25.83 29.96 C19.7 22.31, 12.42 16.97, -2.09 8.35 M24.96 28.17 C17.56 22.04, 9.76 14.46, -0.52 6.17 M30.68 27.78 C21.87 21.21, 14.29 15.97, -1.41 2.64 M28.77 27.87 C21.38 20.01, 16.05 13.76, -0.02 1.75 M28.58 21.9 C21.93 14.08, 11.61 7.2, 1.5 -3 M29.46 21.15 C19.52 13.11, 10.38 4.76, 2.12 -1.68 M27.49 16.01 C23.73 10.99, 18.46 4.68, 9.89 -2.73 M30.36 16.1 C24.05 11.74, 17.43 7.09, 8.86 -2.22 M30.4 11.6 C23.92 5.19, 16.73 0.31, 15.9 -3.04 M30.63 12.45 C24.15 7.07, 20.39 3.14, 13.5 -1.67 M29.89 5.26 C28.19 5.22, 24.37 1.46, 20.18 -2.72 M30.46 6.63 C27.67 4.83, 24.85 1.68, 20.83 -2.11 M29.85 1.1 C28.37 0, 26.72 -2.07, 25.51 -2.49 M29.91 0.74 C28.5 -0.37, 27.04 -1.62, 25.96 -2.69" stroke="#fa5252" stroke-width="0.5" fill="none"></path><path d="M0.54 -1.97 C10.15 -0.69, 21.29 1.49, 31.03 -0.38 M-0.01 0.9 C9.41 -0.14, 18.02 -0.48, 28.49 0.5 M28.19 1.39 C31.17 10.63, 27.99 20.47, 27.81 27.87 M29.44 -0.12 C28.24 8.69, 29.8 19.89, 30.23 28.32 M29.94 29.86 C20.95 28.5, 14.42 27.79, 1.87 27.76 M29.3 27.6 C21.46 28.36, 14.8 28.16, 0.68 28.81 M0.97 26.13 C-0.83 21.89, 0.26 14.6, 0.14 -1.44 M0.07 28.62 C-0.67 16.97, 0.5 5.03, -0.82 -0.49" stroke="#000000" stroke-width="1" fill="none"></path></g><g stroke-linecap="round" transform="translate(875.7037105443901 457.2496293220287) rotate(0 13.871548497293588 14.028663849698717)"><path d="M0 0 C0 0, 0 0, 0 0 M0 0 C0 0, 0 0, 0 0 M0.05 6.34 C0.99 4.76, 2.96 3.24, 5.55 0.61 M0.06 6.41 C1.58 3.94, 3.77 1.8, 4.83 0.05 M-1.22 11.64 C2.12 7.84, 5.7 2.72, 10.05 -0.25 M0.85 11.44 C4.48 6.92, 8.05 3.13, 11.35 0.58 M0.99 16.52 C4.92 14.09, 11.09 5.8, 14.37 1.54 M-0.52 17.67 C4.09 13.26, 8.93 6.4, 15.16 1.21 M-0.62 25.74 C9.3 15.9, 16.27 5.33, 20.99 1.73 M-0.03 23.79 C7.89 16.01, 14.08 7.56, 21.43 0.76 M1.51 29.68 C7.89 20.85, 14.2 12.44, 25.36 0.88 M0.79 28.37 C6.06 23.53, 10.79 16.35, 27.17 0.7 M5.04 27.96 C15.13 20.68, 21.55 9.94, 31.3 3.71 M6.22 29.72 C15.18 19.25, 22.75 9.85, 29.53 1.48 M10.15 27.06 C17.52 24.95, 21.62 20.82, 29.44 9.72 M10.95 28.26 C15.28 24.58, 19.52 18.57, 31.3 7.15 M16.63 31 C20.13 25.24, 26.3 16.66, 29.72 12.81 M17.8 29.06 C19.2 26.99, 23.46 21.87, 30.98 13.9 M22.85 27.83 C24.04 26.76, 25.85 23.16, 30.66 20.99 M22.58 28.57 C25.5 25.98, 27.75 22.98, 29.61 20.2 M-0.31 27.79 C-0.31 27.79, -0.31 27.79, -0.31 27.79 M-0.31 27.79 C-0.31 27.79, -0.31 27.79, -0.31 27.79 M5.92 27.88 C4.83 27.26, 2.56 26.36, 0.62 22.35 M6.25 28.27 C3.91 25.74, 1.11 23.68, 0.27 23.16 M12.89 27.55 C5.94 22.53, 1.34 20.03, 1.23 18.64 M12.98 28.15 C7.07 24.92, 2.91 20.89, -0.43 16.94 M19.21 26.98 C14.48 22.48, 6.93 19.72, -0.22 10.74 M17.44 27.23 C11.95 21.59, 4.74 17.5, -0.07 13.14 M24.63 29.94 C17.55 23.59, 8.06 16.54, 0.08 6.27 M23.86 27.96 C15.74 20.48, 7.78 12.9, -0.52 5.69 M30.5 26.79 C21.11 19.78, 14.35 14.29, 1.86 1.93 M28.71 27.28 C22.64 21.55, 15.08 14.4, -0.32 0.85 M29.73 20.66 C21.15 13.06, 13.8 6.28, 3.01 -3.26 M29.82 20.56 C20.05 15.2, 11.96 7.19, 2.12 -2.13 M28.45 16.27 C22.35 9.44, 17.28 5.76, 7.44 -0.66 M27.69 15.56 C22.65 11.41, 17.31 5.99, 8.76 -2.03 M28.55 11.23 C23.66 7.33, 17.4 3.34, 13.09 -2.79 M28.65 11.39 C23.82 5.77, 18.53 1.69, 13.6 -1.67 M28.67 5.12 C25.44 2.07, 22.89 1.81, 19.89 -1.85 M29.14 4.84 C26.26 3.5, 24.08 0.88, 20.65 -2.25" stroke="#4c6ef5" stroke-width="0.5" fill="none"></path><path d="M-1.97 -0.08 C5.47 0.75, 13.94 1.68, 27.36 -0.11 M0.9 0.78 C11.13 0.77, 21.84 -0.78, 28.24 0.57 M29.14 1.81 C28.61 7.89, 28.46 17.04, 27.65 28.83 M27.63 -0.8 C26.83 6.83, 28.57 13.09, 28.1 27.93 M29.64 28.13 C20.6 30.09, 12.45 30.02, -0.2 27.09 M27.38 27.6 C21.41 28.31, 14.26 28.74, 0.85 27.2 M-1.83 27.06 C-0.1 21.4, -1.4 14.69, -1.44 1.97 M0.66 27.62 C0.19 18.03, -0.61 5.71, -0.49 -0.98" stroke="#000000" stroke-width="1" fill="none"></path></g><g transform="translate(725.1508533566496 602.4786459133765) rotate(0 127.88186645507812 23.5)"><text x="0" y="0" font-family="Virgil, Segoe UI Emoji" font-size="37.64513788603559px" fill="#000000" text-anchor="start" style="white-space: pre;" direction="ltr" dominant-baseline="text-before-edge">ZenWave SDK</text></g><g stroke-linecap="round"><g transform="translate(417.48880247817965 361.25628217751165) rotate(0 159.01539908392522 -105.42982506158792)"><path d="M0.6 -0.67 C53.71 -35.9, 265.89 -175.71, 318.57 -210.87 M-0.54 1.59 C52.48 -34, 264.75 -177.16, 318.01 -212.45" stroke="#000000" stroke-width="1" fill="none"></path></g><g transform="translate(417.48880247817965 361.25628217751165) rotate(0 159.01539908392522 -105.42982506158792)"><path d="M17.35 -23.56 C15.07 -19.54, 8.62 -10.44, -1.36 -1.62 M19.36 -24.75 C11.49 -14.64, 5.4 -7.19, 0.73 -0.99" stroke="#000000" stroke-width="1" fill="none"></path></g><g transform="translate(417.48880247817965 361.25628217751165) rotate(0 159.01539908392522 -105.42982506158792)"><path d="M28.66 -6.43 C23 -7.36, 13.24 -3.27, -1.36 -1.62 M30.67 -7.63 C18.5 -3.94, 8.11 -3, 0.73 -0.99" stroke="#000000" stroke-width="1" fill="none"></path></g><g transform="translate(417.48880247817965 361.25628217751165) rotate(0 159.01539908392522 -105.42982506158792)"><path d="M299.17 -187.03 C307.07 -197.3, 311.02 -202.32, 316.04 -213.4 M301.17 -188.22 C306.86 -196.76, 314.3 -207.68, 318.13 -212.77" stroke="#000000" stroke-width="1" fill="none"></path></g><g transform="translate(417.48880247817965 361.25628217751165) rotate(0 159.01539908392522 -105.42982506158792)"><path d="M287.75 -204.08 C299.07 -209.43, 306.35 -209.47, 316.04 -213.4 M289.76 -205.28 C299.78 -207.41, 311.57 -211.85, 318.13 -212.77" stroke="#000000" stroke-width="1" fill="none"></path></g></g><mask></mask><g stroke-linecap="round"><g transform="translate(443.809176524113 426.9079052535728) rotate(0 150.55483953970997 52.025818302298205)"><path d="M-1.06 0.14 C49.5 17.42, 251.66 86.06, 302.17 103.42 M0.59 -0.83 C51.07 16.66, 250.97 87.69, 301.02 104.89" stroke="#000000" stroke-width="1" fill="none"></path></g><g transform="translate(443.809176524113 426.9079052535728) rotate(0 150.55483953970997 52.025818302298205)"><path d="M29.17 -1.11 C22.7 -1.56, 18.18 1.45, -0.46 -1.42 M29.22 -1.14 C21.47 -0.67, 13.83 -0.62, -0.86 0.03" stroke="#000000" stroke-width="1" fill="none"></path></g><g transform="translate(443.809176524113 426.9079052535728) rotate(0 150.55483953970997 52.025818302298205)"><path d="M22.56 18.32 C17.45 14.04, 14.26 13.16, -0.46 -1.42 M22.61 18.29 C16.36 13.94, 10.34 9.21, -0.86 0.03" stroke="#000000" stroke-width="1" fill="none"></path></g><g transform="translate(443.809176524113 426.9079052535728) rotate(0 150.55483953970997 52.025818302298205)"><path d="M271.26 104.64 C276.79 104.51, 284.27 107.32, 301.62 103.32 M271.31 104.61 C278.33 104.57, 285.46 104.38, 301.22 104.77" stroke="#000000" stroke-width="1" fill="none"></path></g><g transform="translate(443.809176524113 426.9079052535728) rotate(0 150.55483953970997 52.025818302298205)"><path d="M278.04 85.27 C282.18 88.96, 288.3 95.64, 301.62 103.32 M278.09 85.24 C283.57 90, 289.03 94.58, 301.22 104.77" stroke="#000000" stroke-width="1" fill="none"></path></g></g><mask></mask><g stroke-linecap="round"><g transform="translate(853.6428351144516 280.5098354354298) rotate(0 0.3682554952829378 51.08181605190927)"><path d="M0.03 0.02 C0.26 17.16, 1.87 85.92, 2.16 103.17 M-1.42 -1.01 C-1.44 15.73, 0.06 84.2, 1 101.32" stroke="#000000" stroke-width="1" fill="none"></path></g><g transform="translate(853.6428351144516 280.5098354354298) rotate(0 0.3682554952829378 51.08181605190927)"><path d="M10.91 27.33 C7.71 16.54, 4.44 6.75, 0.97 1.41 M10.54 28.62 C9.13 21.03, 5.26 14.41, 0 0.59" stroke="#000000" stroke-width="1" fill="none"></path></g><g transform="translate(853.6428351144516 280.5098354354298) rotate(0 0.3682554952829378 51.08181605190927)"><path d="M-9.61 27.76 C-5.39 16.81, -1.24 6.86, 0.97 1.41 M-9.97 29.05 C-6.36 21.53, -5.2 14.81, 0 0.59" stroke="#000000" stroke-width="1" fill="none"></path></g><g transform="translate(853.6428351144516 280.5098354354298) rotate(0 0.3682554952829378 51.08181605190927)"><path d="M-10.22 72.84 C-5.25 82.22, -0.53 92.6, 1.94 102.7 M-10.58 74.14 C-6.66 80.41, -5.11 87.46, 0.97 101.89" stroke="#000000" stroke-width="1" fill="none"></path></g><g transform="translate(853.6428351144516 280.5098354354298) rotate(0 0.3682554952829378 51.08181605190927)"><path d="M10.29 72.12 C7.84 81.76, 5.15 92.41, 1.94 102.7 M9.93 73.41 C8.83 79.68, 5.34 86.91, 0.97 101.89" stroke="#000000" stroke-width="1" fill="none"></path></g></g><mask></mask><g transform="translate(10 431.8334655761719) rotate(0 154.6875 76.80000000000001)"><text x="0" y="0" font-family="Cascadia, Segoe UI Emoji" font-size="16px" fill="#000000" text-anchor="start" style="white-space: pre;" direction="ltr" dominant-baseline="text-before-edge">API &amp; Models Artifact Files</text><text x="0" y="19.2" font-family="Cascadia, Segoe UI Emoji" font-size="16px" fill="#000000" text-anchor="start" style="white-space: pre;" direction="ltr" dominant-baseline="text-before-edge">Full Text Search Index</text><text x="0" y="38.4" font-family="Cascadia, Segoe UI Emoji" font-size="16px" fill="#000000" text-anchor="start" style="white-space: pre;" direction="ltr" dominant-baseline="text-before-edge">Addons:</text><text x="0" y="57.599999999999994" font-family="Cascadia, Segoe UI Emoji" font-size="16px" fill="#000000" text-anchor="start" style="white-space: pre;" direction="ltr" dominant-baseline="text-before-edge">  - API Quality (Linting results)</text><text x="0" y="76.8" font-family="Cascadia, Segoe UI Emoji" font-size="16px" fill="#000000" text-anchor="start" style="white-space: pre;" direction="ltr" dominant-baseline="text-before-edge">  - API Test Results</text><text x="0" y="96" font-family="Cascadia, Segoe UI Emoji" font-size="16px" fill="#000000" text-anchor="start" style="white-space: pre;" direction="ltr" dominant-baseline="text-before-edge">  - API Test Coverage</text><text x="0" y="115.19999999999999" font-family="Cascadia, Segoe UI Emoji" font-size="16px" fill="#000000" text-anchor="start" style="white-space: pre;" direction="ltr" dominant-baseline="text-before-edge">  - Dependencies graph</text><text x="0" y="134.4" font-family="Cascadia, Segoe UI Emoji" font-size="16px" fill="#000000" text-anchor="start" style="white-space: pre;" direction="ltr" dominant-baseline="text-before-edge">  - </text></g><g transform="translate(1031.3333129882812 544.0000915527344) rotate(0 164.0625 57.60000000000002)"><text x="0" y="0" font-family="Cascadia, Segoe UI Emoji" font-size="16px" fill="#000000" text-anchor="start" style="white-space: pre;" direction="ltr" dominant-baseline="text-before-edge">DDD and API-First Code Generator</text><text x="0" y="19.2" font-family="Cascadia, Segoe UI Emoji" font-size="16px" fill="#000000" text-anchor="start" style="white-space: pre;" direction="ltr" dominant-baseline="text-before-edge"> Supported models:</text><text x="0" y="38.4" font-family="Cascadia, Segoe UI Emoji" font-size="16px" fill="#000000" text-anchor="start" style="white-space: pre;" direction="ltr" dominant-baseline="text-before-edge">  - JHipster Domain Language (JDL)</text><text x="0" y="57.599999999999994" font-family="Cascadia, Segoe UI Emoji" font-size="16px" fill="#000000" text-anchor="start" style="white-space: pre;" direction="ltr" dominant-baseline="text-before-edge">  - ZDL: ZenWave EDA Model Language</text><text x="0" y="76.8" font-family="Cascadia, Segoe UI Emoji" font-size="16px" fill="#000000" text-anchor="start" style="white-space: pre;" direction="ltr" dominant-baseline="text-before-edge">  - AsyncAPI v2/v3</text><text x="0" y="96" font-family="Cascadia, Segoe UI Emoji" font-size="16px" fill="#000000" text-anchor="start" style="white-space: pre;" direction="ltr" dominant-baseline="text-before-edge">  - OpenAPI</text></g><g transform="translate(1040.0000610351562 162.6666717529297) rotate(0 135.9375 57.599999999999994)"><text x="0" y="0" font-family="Cascadia, Segoe UI Emoji" font-size="16px" fill="#000000" text-anchor="start" style="white-space: pre;" direction="ltr" dominant-baseline="text-before-edge">ZenWave Editor (IntelliJ)</text><text x="0" y="19.2" font-family="Cascadia, Segoe UI Emoji" font-size="16px" fill="#000000" text-anchor="start" style="white-space: pre;" direction="ltr" dominant-baseline="text-before-edge">- ZDL: Domain Model Language</text><text x="0" y="38.4" font-family="Cascadia, Segoe UI Emoji" font-size="16px" fill="#000000" text-anchor="start" style="white-space: pre;" direction="ltr" dominant-baseline="text-before-edge">- OpenAPI/AsyncAPI visualizer</text><text x="0" y="57.599999999999994" font-family="Cascadia, Segoe UI Emoji" font-size="16px" fill="#000000" text-anchor="start" style="white-space: pre;" direction="ltr" dominant-baseline="text-before-edge">- Linting and Autofix</text><text x="0" y="76.8" font-family="Cascadia, Segoe UI Emoji" font-size="16px" fill="#000000" text-anchor="start" style="white-space: pre;" direction="ltr" dominant-baseline="text-before-edge">- REST Client</text><text x="0" y="96" font-family="Cascadia, Segoe UI Emoji" font-size="16px" fill="#000000" text-anchor="start" style="white-space: pre;" direction="ltr" dominant-baseline="text-before-edge">- KarateDSL</text></g><g transform="translate(389.3333740234375 10) rotate(0 247.46389770507812 22.5)"><text x="0" y="0" font-family="Virgil, Segoe UI Emoji" font-size="36px" fill="#000000" text-anchor="start" style="white-space: pre;" direction="ltr" dominant-baseline="text-before-edge">ZenWave 360ยบ / Landscape</text></g></svg>